<svg width="20" height="19" viewBox="0 0 20 19" fill="none" xmlns="http://www.w3.org/2000/svg">
<path d="M17.8125 4.6875H14.625V1.5C14.625 1.1519 14.4867 0.818064 14.2406 0.571922C13.9944 0.325781 13.6606 0.1875 13.3125 0.1875H1.3125C0.964403 0.1875 0.630564 0.325781 0.384422 0.571922C0.138281 0.818064 0 1.1519 0 1.5V13.5C0.000123442 13.6062 0.030299 13.7102 0.0870375 13.7999C0.143776 13.8897 0.22476 13.9615 0.320625 14.0072C0.395977 14.0438 0.478712 14.0627 0.5625 14.0625C0.691102 14.0626 0.815842 14.0186 0.915938 13.9378L4.47281 11.0625H4.5V14.25C4.5 14.5981 4.63828 14.9319 4.88442 15.1781C5.13056 15.4242 5.4644 15.5625 5.8125 15.5625H14.6522L18.2091 18.4378C18.3092 18.5186 18.4339 18.5626 18.5625 18.5625C18.6463 18.5627 18.729 18.5438 18.8044 18.5072C18.9002 18.4615 18.9812 18.3897 19.038 18.2999C19.0947 18.2102 19.1249 18.1062 19.125 18V6C19.125 5.6519 18.9867 5.31806 18.7406 5.07192C18.4944 4.82578 18.1606 4.6875 17.8125 4.6875ZM4.27313 9.9375C4.14452 9.93744 4.01978 9.98145 3.91969 10.0622L1.125 12.3216V1.5C1.125 1.45027 1.14475 1.40258 1.17992 1.36742C1.21508 1.33225 1.26277 1.3125 1.3125 1.3125H13.3125C13.3622 1.3125 13.4099 1.33225 13.4451 1.36742C13.4802 1.40258 13.5 1.45027 13.5 1.5V9.75C13.5 9.79973 13.4802 9.84742 13.4451 9.88258C13.4099 9.91775 13.3622 9.9375 13.3125 9.9375H4.27313ZM18 16.8216L15.2053 14.5622C15.1052 14.4814 14.9805 14.4374 14.8519 14.4375H5.8125C5.76277 14.4375 5.71508 14.4177 5.67992 14.3826C5.64475 14.3474 5.625 14.2997 5.625 14.25V11.0625H13.3125C13.6606 11.0625 13.9944 10.9242 14.2406 10.6781C14.4867 10.4319 14.625 10.0981 14.625 9.75V5.8125H17.8125C17.8622 5.8125 17.9099 5.83225 17.9451 5.86742C17.9802 5.90258 18 5.95027 18 6V16.8216Z" fill="black"/>
</svg>
