<svg width="24" height="24" viewBox="0 0 24 24" fill="none" xmlns="http://www.w3.org/2000/svg">
<path d="M21.3671 14.8535H21.2683C20.8164 14.8535 20.45 15.2199 20.45 15.6718V22C20.45 22.6904 19.8904 23.25 19.2 23.25H14.75V18.2595C14.75 17.293 13.9665 16.5095 13 16.5095H11C10.0335 16.5095 9.25 17.293 9.25 18.2595V23.25H4.8C4.10964 23.25 3.55 22.6904 3.55 22V15.6718C3.55 15.2199 3.18364 14.8535 2.73171 14.8535H2.54806C1.55502 14.8535 0.75 14.0485 0.75 13.0554C0.75 12.5786 0.939438 12.1212 1.27664 11.784L11.1237 1.93697C11.61 1.45066 12.3978 1.44855 12.8867 1.93223L22.6913 11.6321C23.0488 11.9857 23.25 12.4677 23.25 12.9706C23.25 14.0105 22.407 14.8535 21.3671 14.8535Z" fill="black" stroke="white" stroke-width="1.5"/>
</svg>
