<svg width="37" height="41" viewBox="0 0 37 41" fill="none" xmlns="http://www.w3.org/2000/svg">
<path opacity="0.21" fill-rule="evenodd" clip-rule="evenodd" d="M0 20.3745V22.4741C0 32.5671 8.18192 40.749 18.2748 40.749C28.3677 40.749 36.5496 32.5671 36.5496 22.4742V20.3745V18.2748C36.5496 8.18192 28.3677 0 18.2748 0C8.18192 0 0 8.1819 0 18.2748V20.3745Z" fill="#FEC53D"/>
<path fill-rule="evenodd" clip-rule="evenodd" d="M9.13745 16.5144L16.9959 21.5728C17.0805 21.6273 17.1693 21.6666 17.2596 21.6916V31.5021L9.69792 26.5129C9.35053 26.2837 9.13745 25.8671 9.13745 25.417V16.5144ZM27.4122 16.3799V25.4169C27.4122 25.867 27.1991 26.2836 26.8517 26.5128L19.2901 31.502V21.6056C19.3085 21.5953 19.3268 21.5844 19.3448 21.5727L27.4122 16.3799Z" fill="#FEC53D"/>
<path opacity="0.499209" fill-rule="evenodd" clip-rule="evenodd" d="M9.3844 14.0595C9.48039 13.9244 9.60154 13.8102 9.74279 13.7263L17.738 8.97858C18.0737 8.77927 18.4763 8.77927 18.8119 8.97858L26.8071 13.7263C26.916 13.7909 27.013 13.8736 27.0956 13.97L18.3297 19.6125C18.2721 19.6496 18.2189 19.6921 18.1705 19.739C18.1221 19.6921 18.0689 19.6496 18.0113 19.6125L9.3844 14.0595Z" fill="#FEC53D"/>
</svg>
