a<svg width="35" height="38" viewBox="0 0 35 38" fill="none" xmlns="http://www.w3.org/2000/svg">
<path opacity="0.21" fill-rule="evenodd" clip-rule="evenodd" d="M0 19V20.5C0 30.165 7.83502 38 17.5 38C27.165 38 35 30.165 35 20.5V19V17.5C35 7.83502 27.165 0 17.5 0C7.83502 0 0 7.83502 0 17.5V19Z" fill="#8280FF"/>
<path opacity="0.587821" fill-rule="evenodd" clip-rule="evenodd" d="M11.9385 13.6222C11.9385 16.175 13.3491 18.2444 15.0892 18.2444C16.8294 18.2444 18.24 16.175 18.24 13.6222C18.24 11.0694 16.8294 9 15.0892 9C13.3491 9 11.9385 11.0694 11.9385 13.6222ZM19.8154 18.2445C19.8154 20.1591 20.8734 21.7112 22.1785 21.7112C23.4836 21.7112 24.5416 20.1591 24.5416 18.2445C24.5416 16.3299 23.4836 14.7778 22.1785 14.7778C20.8734 14.7778 19.8154 16.3299 19.8154 18.2445Z" fill="#8280FF"/>
<path fill-rule="evenodd" clip-rule="evenodd" d="M15.0761 20.5552C11.3571 20.5552 8.30583 23.3591 8.00051 28.8743C7.98388 29.1747 8.3755 29.7996 8.57305 29.7996H21.5851C22.1768 29.7996 22.186 29.1011 22.1768 28.8752C21.946 23.2051 18.8475 20.5552 15.0761 20.5552ZM23.4387 29.7995V29.7996H26.476C26.9034 29.7996 26.91 29.2756 26.9034 29.1062C26.7385 24.9002 24.5476 22.91 21.8643 22.8669C22.8529 24.7981 23.4387 27.1984 23.4387 29.7995Z" fill="#8280FF"/>
</svg>
