<svg width="26" height="25" viewBox="0 0 26 25" fill="none" xmlns="http://www.w3.org/2000/svg">
<path d="M6 19C6 17.9391 6.42143 16.9217 7.17157 16.1716C7.92172 15.4214 8.93913 15 10 15H18C19.0609 15 20.0783 15.4214 20.8284 16.1716C21.5786 16.9217 22 17.9391 22 19C22 19.5304 21.7893 20.0391 21.4142 20.4142C21.0391 20.7893 20.5304 21 20 21H8C7.46957 21 6.96086 20.7893 6.58579 20.4142C6.21071 20.0391 6 19.5304 6 19Z" stroke="black" stroke-width="2" stroke-linejoin="round"/>
<path d="M14 11C15.6569 11 17 9.65685 17 8C17 6.34315 15.6569 5 14 5C12.3431 5 11 6.34315 11 8C11 9.65685 12.3431 11 14 11Z" stroke="black" stroke-width="2"/>
</svg>
