<svg width="41" height="41" viewBox="0 0 41 41" fill="none" xmlns="http://www.w3.org/2000/svg">
<path opacity="0.3" fill-rule="evenodd" clip-rule="evenodd" d="M41 20.5C41 31.8218 31.8218 41 20.5 41C9.17816 41 0 31.8218 0 20.5C0 9.17816 9.17816 0 20.5 0C31.8218 0 41 9.17816 41 20.5Z" fill="#FF9066"/>
<path opacity="0.78" fill-rule="evenodd" clip-rule="evenodd" d="M19.5536 16.4135C19.5735 16.1543 19.7897 15.9541 20.0497 15.9541C20.3054 15.9541 20.5194 16.1478 20.5448 16.4022L20.9556 20.5097L23.9015 22.193C24.0518 22.2789 24.1445 22.4387 24.1445 22.6117C24.1445 22.9296 23.8422 23.1605 23.5354 23.0769L19.532 21.985C19.3006 21.9219 19.1467 21.7034 19.1651 21.4643L19.5536 16.4135Z" fill="#FF9066"/>
<path opacity="0.901274" fill-rule="evenodd" clip-rule="evenodd" d="M15.7289 10.4807C15.4648 10.1659 14.9548 10.2864 14.8595 10.6861L13.8657 14.8527C13.788 15.1783 14.0461 15.4868 14.3803 15.4679L18.6665 15.225C19.0774 15.2017 19.2858 14.7197 19.0213 14.4044L17.9934 13.1795C18.7894 12.9075 19.6334 12.7654 20.5 12.7654C24.7772 12.7654 28.2445 16.2327 28.2445 20.5099C28.2445 24.787 24.7772 28.2543 20.5 28.2543C16.2229 28.2543 12.7556 24.787 12.7556 20.5099C12.7556 19.7919 12.8528 19.0886 13.0424 18.4127L11.2879 17.9205C11.0569 18.7441 10.9333 19.6125 10.9333 20.5099C10.9333 25.7934 15.2165 30.0765 20.5 30.0765C25.7835 30.0765 30.0667 25.7934 30.0667 20.5099C30.0667 15.2263 25.7835 10.9432 20.5 10.9432C19.1711 10.9432 17.9054 11.2142 16.7553 11.7039L15.7289 10.4807Z" fill="#FF9066"/>
</svg>
