<svg width="24" height="25" viewBox="0 0 24 25" fill="none" xmlns="http://www.w3.org/2000/svg">
<g clip-path="url(#clip0_1_3844)">
<path d="M10.5 6.51172V8.01172H6V6.51172H10.5ZM6 11.0117V9.51172H10.5V11.0117H6ZM6 14.0117V12.5117H9V14.0117H6ZM4.5 6.51172V8.01172H3V6.51172H4.5ZM4.5 9.51172V11.0117H3V9.51172H4.5ZM3 14.0117V12.5117H4.5V14.0117H3ZM1.5 2.01172V23.0117H9V24.5117H0V0.511719H13.0664L19.5 6.94531V9.51172H18V8.01172H12V2.01172H1.5ZM13.5 3.07812V6.51172H16.9336L13.5 3.07812ZM21 12.5117H24V24.5117H10.5V12.5117H13.5V11.0117H15V12.5117H19.5V11.0117H21V12.5117ZM22.5 23.0117V17.0117H12V23.0117H22.5ZM22.5 15.5117V14.0117H12V15.5117H22.5Z" fill="black"/>
</g>
<defs>
<clipPath id="clip0_1_3844">
<rect width="24" height="24" fill="white" transform="translate(0 0.511719)"/>
</clipPath>
</defs>
</svg>
