<svg width="18" height="17" viewBox="0 0 18 17" fill="none" xmlns="http://www.w3.org/2000/svg">
<path d="M11.5 12.0117C11.922 12.0117 12.2773 11.8671 12.566 11.5777C12.8553 11.2891 13 10.9337 13 10.5117C13 10.0897 12.8553 9.73439 12.566 9.44572C12.2767 9.15705 11.9213 9.01239 11.5 9.01172C11.2887 9.01172 11.093 9.05439 10.913 9.13972C10.733 9.22505 10.5703 9.33639 10.425 9.47372L6.981 7.73872C6.99367 7.70539 7 7.67072 7 7.63472V7.37872C7 7.33672 6.99333 7.29905 6.98 7.26572L10.406 5.55072C10.5507 5.68739 10.7163 5.79839 10.903 5.88372C11.0897 5.96905 11.2887 6.01172 11.5 6.01172C11.922 6.01172 12.2773 5.86705 12.566 5.57772C12.8553 5.28905 13 4.93372 13 4.51172C13 4.08972 12.8553 3.73439 12.566 3.44572C12.2773 3.15639 11.922 3.01172 11.5 3.01172C11.078 3.01172 10.7227 3.15639 10.434 3.44572C10.1453 3.73505 10.0007 4.09039 10 4.51172V4.63472C10 4.67072 10.0067 4.71172 10.02 4.75772L6.593 6.47272C6.44833 6.33605 6.28267 6.22505 6.096 6.13972C5.90933 6.05439 5.71067 6.01172 5.5 6.01172C5.078 6.01172 4.72267 6.15639 4.434 6.44572C4.14467 6.73439 4 7.08972 4 7.51172C4 7.93372 4.14467 8.28905 4.434 8.57772C4.72333 8.86639 5.07867 9.01105 5.5 9.01172C5.71133 9.01172 5.91033 8.96605 6.097 8.87472C6.28367 8.78272 6.44933 8.66805 6.594 8.53072L10.019 10.2657C10.0063 10.3117 10 10.3527 10 10.3887V10.5117C10 10.9337 10.1447 11.2891 10.434 11.5777C10.7227 11.8671 11.078 12.0117 11.5 12.0117ZM3.077 14.5117L1.373 16.2157C1.12033 16.4684 0.828333 16.5264 0.497 16.3897C0.165667 16.2531 0 16.0047 0 15.6447V2.12772C0 1.66705 0.154333 1.28272 0.463 0.974719C0.771667 0.666719 1.156 0.512385 1.616 0.511719H16.385C16.845 0.511719 17.2293 0.666052 17.538 0.974719C17.8467 1.28339 18.0007 1.66772 18 2.12772V12.8967C18 13.3567 17.846 13.7411 17.538 14.0497C17.23 14.3584 16.8457 14.5124 16.385 14.5117H3.077ZM2.65 13.5117H16.385C16.5383 13.5117 16.6793 13.4477 16.808 13.3197C16.9367 13.1917 17.0007 13.0507 17 12.8967V2.12672C17 1.97339 16.936 1.83239 16.808 1.70372C16.68 1.57505 16.539 1.51105 16.385 1.51172H1.615C1.46167 1.51172 1.32067 1.57572 1.192 1.70372C1.06333 1.83172 0.999333 1.97272 1 2.12672V15.1567L2.65 13.5117Z" fill="black"/>
</svg>
