<svg width="33" height="33" viewBox="0 0 33 33" fill="none" xmlns="http://www.w3.org/2000/svg">
<path opacity="0.21" fill-rule="evenodd" clip-rule="evenodd" d="M33 16.5C33 25.6127 25.6127 33 16.5 33C7.3873 33 0 25.6127 0 16.5C0 7.3873 7.3873 0 16.5 0C25.6127 0 33 7.3873 33 16.5Z" fill="#4AD991"/>
<path d="M10.5112 22.4887H23.3445C23.817 22.4887 24.2 22.8717 24.2 23.3442C24.2 23.8168 23.817 24.1998 23.3445 24.1998H9.6556C9.18309 24.1998 8.80005 23.8168 8.80005 23.3442V9.65536C8.80005 9.18285 9.18309 8.7998 9.6556 8.7998C10.1281 8.7998 10.5112 9.18285 10.5112 9.65536V22.4887Z" fill="#4AD991"/>
<path opacity="0.5" d="M13.702 18.7958C13.3788 19.1405 12.8374 19.158 12.4927 18.8348C12.148 18.5116 12.1305 17.9702 12.4537 17.6255L15.662 14.2033C15.9746 13.8699 16.4939 13.841 16.8415 14.1376L19.3738 16.2984L22.673 12.1194C22.9658 11.7485 23.5038 11.6852 23.8747 11.978C24.2455 12.2708 24.3088 12.8088 24.016 13.1797L20.166 18.0563C19.8653 18.4372 19.3083 18.492 18.9392 18.177L16.3519 15.9692L13.702 18.7958Z" fill="#4AD991"/>
</svg>
